HIERARCHY
ROOT Hips
{
	OFFSET 0.000000 0.000000 0.000000
	CHANNELS 6 Xposition Yposition Zposition Xrotation Yrotation Zrotation
	JOINT LeftUpLeg_virtual
	{
		OFFSET 0.000000 0.000000 0.000000
		CHANNELS 3 Xrotation Yrotation Zrotation
		JOINT LeftUpLeg
		{
			OFFSET 10.205400 -3.823500 0.155100
			CHANNELS 3 Xrotation Yrotation Zrotation
			JOINT LeftLeg
			{
				OFFSET 0.708757 -12.982077 0.567790
				CHANNELS 3 Xrotation Yrotation Zrotation
				JOINT LeftFoot
				{
					OFFSET -0.708756 -10.717838 -2.184338
					CHANNELS 3 Xrotation Yrotation Zrotation
					JOINT LeftToeBase
					{
						OFFSET 0.108149 -7.191104 7.560241
						CHANNELS 3 Xrotation Yrotation Zrotation
						JOINT LeftToe_End
						{
							OFFSET 0.070230 0.081724 4.490308
							CHANNELS 3 Xrotation Yrotation Zrotation
							End Site
							{
								OFFSET 0 0 0
							}
						}
					}
				}
			}
		}
	}
	JOINT RightUpLeg_virtual
	{
		OFFSET 0.000000 0.000000 0.000000
		CHANNELS 3 Xrotation Yrotation Zrotation
		JOINT RightUpLeg
		{
			OFFSET -10.205400 -3.823500 0.005500
			CHANNELS 3 Xrotation Yrotation Zrotation
			JOINT RightLeg
			{
				OFFSET -0.708756 -12.982134 0.610632
				CHANNELS 3 Xrotation Yrotation Zrotation
				JOINT RightFoot
				{
					OFFSET 0.708754 -10.717769 -1.945823
					CHANNELS 3 Xrotation Yrotation Zrotation
					JOINT RightToeBase
					{
						OFFSET -0.108140 -7.191069 7.372968
						CHANNELS 3 Xrotation Yrotation Zrotation
						JOINT RightToe_End
						{
							OFFSET -0.070227 0.081735 4.479403
							CHANNELS 3 Xrotation Yrotation Zrotation
							End Site
							{
								OFFSET 0 0 0
							}
						}
					}
				}
			}
		}
	}
	JOINT Spine_virtual
	{
		OFFSET 0.000000 0.000000 0.000000
		CHANNELS 3 Xrotation Yrotation Zrotation
		JOINT Spine
		{
			OFFSET 0.000000 6.876099 0.125700
			CHANNELS 3 Xrotation Yrotation Zrotation
			JOINT Spine1
			{
				OFFSET 0.000000 5.730043 0.104720
				CHANNELS 3 Xrotation Yrotation Zrotation
				JOINT Spine1_split
				{
					OFFSET 0.000000 5.730043 0.104720
					CHANNELS 3 Xrotation Yrotation Zrotation
					JOINT Spine2
					{
						OFFSET 0.000000 5.730043 0.104720
						CHANNELS 3 Xrotation Yrotation Zrotation
						JOINT Neck_virtual
						{
							OFFSET 0.000000 0.000000 0.000000
							CHANNELS 3 Xrotation Yrotation Zrotation
							JOINT Neck
							{
								OFFSET 0.000000 10.314075 0.188496
								CHANNELS 3 Xrotation Yrotation Zrotation
								JOINT Head
								{
									OFFSET 0.000000 7.643700 -2.377400
									CHANNELS 3 Xrotation Yrotation Zrotation
									JOINT HeadTop_End
									{
										OFFSET 0.000000 43.788605 -13.619600
										CHANNELS 3 Xrotation Yrotation Zrotation
										End Site
										{
											OFFSET 0 0 0
										}
									}
								}
							}
						}
						JOINT LeftShoulder_virtual
						{
							OFFSET 0.000000 0.000000 0.000000
							CHANNELS 3 Xrotation Yrotation Zrotation
							JOINT LeftShoulder
							{
								OFFSET 2.196100 4.412489 0.087492
								CHANNELS 3 Xrotation Yrotation Zrotation
								JOINT LeftShoulder_split
								{
									OFFSET 2.196100 4.412489 0.087492
									CHANNELS 3 Xrotation Yrotation Zrotation
									JOINT LeftArm
									{
										OFFSET 8.771219 -2.981674 -0.026999
										CHANNELS 3 Xrotation Yrotation Zrotation
										JOINT LeftForeArm
										{
											OFFSET 8.512804 0.000000 -0.000000
											CHANNELS 3 Xrotation Yrotation Zrotation
											JOINT LeftHand
											{
												OFFSET 18.484802 0.000000 -0.000000
												CHANNELS 3 Xrotation Yrotation Zrotation
												End Site
												{
													OFFSET 0 0 0
												}
											}
										}
									}
								}
							}
						}
						JOINT RightShoulder_virtual
						{
							OFFSET 0.000000 0.000000 0.000000
							CHANNELS 3 Xrotation Yrotation Zrotation
							JOINT RightShoulder
							{
								OFFSET -2.196100 4.412496 0.070690
								CHANNELS 3 Xrotation Yrotation Zrotation
								JOINT RightShoulder_split
								{
									OFFSET -2.196100 4.412496 0.070690
									CHANNELS 3 Xrotation Yrotation Zrotation
									JOINT RightArm
									{
										OFFSET -8.771282 -2.981682 -0.094208
										CHANNELS 3 Xrotation Yrotation Zrotation
										JOINT RightForeArm
										{
											OFFSET -8.494598 0.000000 0.000000
											CHANNELS 3 Xrotation Yrotation Zrotation
											JOINT RightHand
											{
												OFFSET -18.483803 0.000000 0.000001
												CHANNELS 3 Xrotation Yrotation Zrotation
												End Site
												{
													OFFSET 0 0 0
												}
											}
										}
									}
								}
							}
						}
					}
				}
			}
		}
	}
}
MOTION
Frames: 4
Frame Time: 0.03333333
4.169593 30.652328 -8.061286 0.000000 0.000000 0.000000 8.963498 12.709683 -1.030169 1.861361 10.968361 11.857960 47.548536 -2.456906 5.673830 -11.265262 -5.500050 -21.916793 -21.120839 0.289943 -1.446692 0.000000 0.000000 0.000000 8.171794 11.591202 -0.881948 -40.719378 -10.882197 -6.926359 47.182779 0.147816 -0.041979 -15.429710 3.338167 -1.503310 -2.294910 0.600655 0.015109 0.000000 0.000000 0.000000 9.131674 10.429209 -0.507925 0.668471 -3.943834 -1.343570 2.697531 -2.167717 2.213958 -0.777539 0.830488 0.075257 0.000000 0.000000 0.000000 2.628010 -2.671997 2.378602 -3.188236 1.111194 2.409067 -8.873246 3.915742 7.043327 0.000000 0.000000 0.000000 1.106820 -2.323754 2.662536 0.568219 2.893872 -0.532715 2.578082 -4.560878 7.000822 -40.510583 -10.737763 -35.787295 173.980013 -64.036384 174.798611 0.000000 0.000000 0.000000 1.206064 -3.005647 2.151354 -0.642939 -18.856704 5.950090 -2.263199 7.942954 -3.217620 -34.498766 9.068572 54.650720 -170.807786 62.510957 173.242913 0.000000 0.000000 0.000000 
4.276838 31.432320 -8.510123 0.000000 0.000000 0.000000 10.718435 13.067874 -1.959027 -10.544224 8.985366 16.426847 61.014353 -2.975164 4.350077 -2.961192 -6.526457 -18.599956 -10.662358 0.580442 -3.756032 0.000000 0.000000 0.000000 8.885624 11.023592 -1.359681 -37.706264 -11.922654 -6.435639 44.267942 1.334111 0.763620 -16.207170 3.623753 -0.098343 -6.084390 0.358949 -0.607486 0.000000 0.000000 0.000000 10.116227 9.521074 -0.955823 4.976496 -3.329281 -1.104340 2.704289 -1.764681 1.238422 0.249049 0.964121 0.097242 0.000000 0.000000 0.000000 2.491847 -2.273379 1.730421 -3.948135 1.012413 0.943274 -12.982278 1.132840 8.626204 0.000000 0.000000 0.000000 1.188137 -1.925686 1.897701 0.729754 1.872012 10.961466 2.556002 -2.218809 2.756860 -56.628528 -10.005613 -34.394152 174.871749 -67.745634 174.772697 0.000000 0.000000 0.000000 1.338486 -2.421830 1.351172 -2.430203 -17.715653 -2.121267 -1.443372 5.867698 -3.680997 -52.817795 4.368017 57.396928 -171.117399 65.863473 172.310715 0.000000 0.000000 0.000000 
4.249043 32.034264 -8.701985 0.000000 0.000000 0.000000 12.083151 12.022863 -1.894049 -22.449186 7.789119 19.669461 72.426090 -2.507933 2.006480 2.562930 -5.104357 -10.899431 -0.915935 0.362394 -5.432762 0.000000 0.000000 0.000000 9.836348 9.816934 -1.349513 -35.229733 -12.212121 -7.026373 42.668625 0.822424 1.928079 -17.255891 3.277934 -0.648949 -9.912599 -0.091211 -0.695602 0.000000 0.000000 0.000000 11.158339 8.155707 -0.823220 8.515695 -2.622122 -1.603434 3.027498 -1.399014 0.412963 1.110934 1.031852 0.094533 0.000000 0.000000 0.000000 2.905808 -1.855486 1.212520 -5.018557 0.957252 -0.224707 -17.795551 -1.220462 9.751482 0.000000 0.000000 0.000000 1.656984 -1.574403 1.213919 0.983221 1.237895 21.358321 2.460355 0.635368 -0.424794 -69.482504 -9.531943 -30.414983 173.781145 -74.779575 173.239252 0.000000 0.000000 0.000000 2.018305 -1.873733 0.608743 -3.818139 -15.960931 -10.140999 -0.387169 2.770697 -3.865892 -66.102209 -1.930230 56.819961 -172.500867 69.774842 171.743331 0.000000 0.000000 0.000000 
4.111880 32.525330 -8.764705 0.000000 0.000000 0.000000 12.998914 9.710628 -0.810128 -32.892907 7.992676 20.977922 79.862888 -1.868932 -0.452149 5.470922 -3.014939 -1.844038 2.164193 -0.039338 -5.110692 0.000000 0.000000 0.000000 11.052902 7.765793 -0.775451 -33.805738 -11.740613 -8.712502 41.421665 -0.711573 3.451292 -17.068189 2.527497 -1.967702 -12.844644 -0.635770 -0.311152 0.000000 0.000000 0.000000 12.156867 6.496624 -0.163240 10.542766 -1.944476 -2.614913 3.527477 -1.121802 -0.017355 1.158071 0.668711 0.352296 0.000000 0.000000 0.000000 3.672973 -1.464732 1.037434 -6.264562 0.936764 -0.787900 -22.141320 -2.827297 10.461526 0.000000 0.000000 0.000000 2.327507 -1.279704 0.907843 1.068190 1.193876 28.431274 2.193314 2.931872 -3.293677 -77.148926 -9.737280 -25.762970 169.115197 -82.116783 168.910892 0.000000 0.000000 0.000000 3.002330 -1.476552 0.150063 -4.376434 -13.931093 -16.147252 0.439844 -0.096535 -3.111920 -71.831590 -7.049530 54.371236 -175.155270 73.001540 172.218152 0.000000 0.000000 0.000000 
